<svg xmlns="http://www.w3.org/2000/svg" viewBox="0 0 24 24" xml:space="preserve"><path fill="#303C42" d="M2.722 20.052a.503.503 0 0 0-.526.051L.642 21.292c-.408.29-.642.73-.642 1.208 0 .827.673 1.5 1.5 1.5S3 23.327 3 22.5v-2a.5.5 0 0 0-.278-.448z"/><path fill="#BDDDF4" d="M2 22.5a.5.5 0 0 1-1 0 .492.492 0 0 1 .242-.408l.758-.58v.988z"/><path fill="#303C42" d="M23.5 7h-1.525a5.473 5.473 0 0 0-1.251-3.017l1.08-1.08a.5.5 0 1 0-.707-.706l-1.08 1.08A5.474 5.474 0 0 0 17 2.024V.5a.5.5 0 1 0-1 0v1.54a5.427 5.427 0 0 0-3 1.253l-1.097-1.096a.5.5 0 1 0-.707.707l1.1 1.099c-.321.389-.588.824-.797 1.3A6.902 6.902 0 0 0 9.5 5a6.984 6.984 0 0 0-6.946 6.28A3.998 3.998 0 0 0 0 15c0 2.206 1.794 4 4 4h13c2.757 0 5-2.243 5-5 0-1.211-.45-2.308-1.17-3.174A5.446 5.446 0 0 0 21.954 8H23.5a.5.5 0 1 0 0-1z"/><path fill="#FFCB29" d="M20.115 10.12C19.258 9.43 18.183 9 17 9c-.388 0-.767.057-1.139.144a7.019 7.019 0 0 0-3.43-3.482C13.151 4.057 14.726 3 16.5 3 18.981 3 21 5.019 21 7.5c0 .942-.322 1.85-.885 2.62z"/><path fill="#70B2E2" d="M21 14c0 2.206-1.794 4-4 4H4c-1.654 0-3-1.346-3-3s1.346-3 3-3a.5.5 0 1 0 0-1c-.142 0-.276.027-.413.042A5.99 5.99 0 0 1 9.5 6c2.323 0 4.428 1.378 5.409 3.461a4.999 4.999 0 0 0-.699.389.5.5 0 0 0 .559.83A3.98 3.98 0 0 1 17 10c2.206 0 4 1.794 4 4z"/><path fill="#70B2E2" d="M21 14c0 2.206-1.794 4-4 4H4c-1.654 0-3-1.346-3-3s1.346-3 3-3a.5.5 0 1 0 0-1c-.142 0-.276.027-.413.042A5.99 5.99 0 0 1 9.5 6c2.323 0 4.428 1.378 5.409 3.461a4.999 4.999 0 0 0-.699.389.5.5 0 0 0 .559.83A3.98 3.98 0 0 1 17 10c2.206 0 4 1.794 4 4z"/><path fill="#303C42" d="M5.5 22c-.827 0-1.5-.673-1.5-1.5 0-.478.234-.918.642-1.208l1.554-1.189A.5.5 0 0 1 7 18.5v2c0 .827-.673 1.5-1.5 1.5z"/><path fill="#BDDDF4" d="m6 19.512-.758.58A.492.492 0 0 0 5 20.5a.5.5 0 0 0 1 0v-.988z"/><path fill="#303C42" d="M4.938 19.695h.01-.01zM14.5 24c-.827 0-1.5-.673-1.5-1.5 0-.479.234-.918.642-1.208l1.554-1.189A.5.5 0 0 1 16 20.5v2c0 .827-.673 1.5-1.5 1.5z"/><path fill="#BDDDF4" d="m15 21.512-.758.58A.489.489 0 0 0 14 22.5a.5.5 0 0 0 1 0v-.988z"/><path fill="#303C42" d="M13.938 21.695h.01-.01z"/><path opacity=".1" fill="#010101" d="M19.268 10.711c.14.407.232.836.232 1.289 0 2.206-1.794 4-4 4h-13a2.962 2.962 0 0 1-1.434-.382A3.004 3.004 0 0 0 4 18h13c2.206 0 4-1.794 4-4a3.995 3.995 0 0 0-1.732-3.289z"/><path fill="#303C42" d="M8 24a.498.498 0 0 1-.49-.598l1.5-7.5a.498.498 0 0 1 .714-.35l1.358.68.42-3.787a.502.502 0 0 1 .656-.42l3 1a.5.5 0 0 1 .32.622l-2 6.5a.5.5 0 0 1-.702.3l-1.605-.802-2.755 4.132A.5.5 0 0 1 8 24z"/><path fill="#FFCB29" d="m9.862 16.74-.876 4.38 1.598-2.397a.5.5 0 0 1 .64-.17l1.472.736 1.682-5.47-1.95-.65-.43 3.886a.5.5 0 0 1-.722.392l-1.414-.707z"/><linearGradient id="a" gradientUnits="userSpaceOnUse" x1="2.449" y1="8.868" x2="20.898" y2="17.471"><stop offset="0" style="stop-color:#fff;stop-opacity:.2"/><stop offset="1" style="stop-color:#fff;stop-opacity:0"/></linearGradient><path fill="url(#a)" d="M2.722 20.052a.503.503 0 0 0-.526.051L.642 21.292c-.408.29-.642.73-.642 1.208 0 .827.673 1.5 1.5 1.5S3 23.327 3 22.5v-2a.5.5 0 0 0-.278-.448zM23.5 7h-1.525a5.473 5.473 0 0 0-1.251-3.017l1.08-1.08a.5.5 0 1 0-.707-.706l-1.08 1.08A5.474 5.474 0 0 0 17 2.024V.5a.5.5 0 1 0-1 0v1.54a5.427 5.427 0 0 0-3 1.253l-1.097-1.096a.5.5 0 1 0-.707.707l1.1 1.099c-.321.389-.588.824-.797 1.3A6.902 6.902 0 0 0 9.5 5a6.984 6.984 0 0 0-6.946 6.28A3.998 3.998 0 0 0 0 15c0 2.206 1.794 4 4 4h1.024l-.382.292c-.408.29-.642.73-.642 1.208 0 .827.673 1.5 1.5 1.5S7 21.327 7 20.5V19h1.39l-.88 4.402a.5.5 0 0 0 .906.375l2.755-4.132 1.605.802a.5.5 0 0 0 .702-.3L13.831 19H17c2.757 0 5-2.243 5-5 0-1.211-.45-2.308-1.17-3.174A5.446 5.446 0 0 0 21.954 8H23.5a.5.5 0 1 0 0-1zm-7.778 13.052a.503.503 0 0 0-.526.051l-1.554 1.19c-.408.289-.642.728-.642 1.207 0 .827.673 1.5 1.5 1.5s1.5-.673 1.5-1.5v-2a.5.5 0 0 0-.278-.448z"/></svg>